<svg xmlns="http://www.w3.org/2000/svg" viewBox="0 0 100 100" width="100" height="100">
  <!-- Background circle -->
  <circle cx="50" cy="50" r="48" fill="#1b98d5"/>
  
  <!-- Head -->
  <circle cx="50" cy="35" r="15" fill="#FFE0BD"/>
  
  <!-- Body -->
  <ellipse cx="50" cy="70" rx="20" ry="25" fill="#0065bd"/>
  
  <!-- Cape -->
  <path d="M 35 55 Q 30 65 32 80 L 68 80 Q 70 65 65 55 Z" fill="#e37222" opacity="0.8"/>
  
  <!-- Arms -->
  <ellipse cx="30" cy="60" rx="6" ry="15" fill="#FFE0BD" transform="rotate(-20 30 60)"/>
  <ellipse cx="70" cy="60" rx="6" ry="15" fill="#FFE0BD" transform="rotate(20 70 60)"/>
  
  <!-- Eyes -->
  <circle cx="45" cy="33" r="2" fill="#333"/>
  <circle cx="55" cy="33" r="2" fill="#333"/>
  
  <!-- Smile -->
  <path d="M 43 38 Q 50 42 57 38" stroke="#333" stroke-width="1.5" fill="none" stroke-linecap="round"/>
  
  <!-- Star on chest -->
  <polygon points="50,58 52,62 56,63 53,66 54,70 50,68 46,70 47,66 44,63 48,62" fill="#FFD700"/>
</svg>


